<svg version="1.2" xmlns="http://www.w3.org/2000/svg" viewBox="0 0 32 32" width="32" height="32">
	<title>twitchlive_on-svg</title>
	<style>
		.s0 { fill: #ffffff } 
	</style>
	<g id="layer1">
		<path id="path2997" fill-rule="evenodd" class="s0" d="m1.3 0l-1.3 5.2v23.5h5.9v3.3h3.2l3.3-3.3h5.1q-0.4-0.5-0.7-1-0.2-0.6-0.5-1.2-0.2-0.6-0.3-1.3-0.1-0.6-0.1-1.2 0-0.3 0.1-0.6 0-0.3 0-0.7 0.1-0.3 0.2-0.6 0-0.3 0.1-0.5h-2.6l-3.9 3.9v-3.9h-5.9v-19h21.6v13.5q0.3 0.1 0.7 0.2 0.3 0 0.6 0.2 0.3 0.1 0.7 0.3 0.3 0.1 0.6 0.3v-17.1z"/>
		<path id="path2999" fill-rule="evenodd" class="s0" d="m11.1 7.8h2.6v7.9h-2.6zm7.2 0h2.6v7.8h-2.6z"/>
		<path id="path4283" class="s0" d="m24 30.6c-3.7 0-6.7-2.9-6.7-6.6 0-3.7 3-6.7 6.7-6.7 3.7 0 6.6 3 6.6 6.7 0 3.7-2.9 6.6-6.6 6.6z"/>
	</g>
</svg>